<?xml version="1.0" standalone="no"?>
<!DOCTYPE svg PUBLIC "-//W3C//DTD SVG 20010904//EN"
 "http://www.w3.org/TR/2001/REC-SVG-20010904/DTD/svg10.dtd">
<svg version="1.0" xmlns="http://www.w3.org/2000/svg"
 width="1000.000000pt" height="1000.000000pt" viewBox="0 0 1000.000000 1000.000000"
 preserveAspectRatio="xMidYMid meet">
<metadata>
Created by potrace 1.14, written by Peter Selinger 2001-2017
</metadata>
<g transform="translate(0.000000,1000.000000) scale(0.100000,-0.100000)"
fill="#000000" stroke="none">
<path d="M4739 9996 c-2 -2 -53 -6 -114 -10 -60 -3 -121 -8 -135 -10 -14 -3
-50 -7 -80 -10 -105 -12 -266 -38 -390 -62 -1844 -367 -3342 -1761 -3840
-3574 -26 -96 -55 -211 -64 -255 -9 -44 -19 -91 -22 -105 -9 -45 -43 -244 -49
-295 -34 -269 -40 -370 -40 -685 0 -239 7 -423 20 -502 2 -13 6 -50 10 -83 79
-743 372 -1538 808 -2190 57 -86 219 -307 241 -331 6 -7 27 -31 46 -55 161
-200 408 -454 604 -622 11 -10 31 -27 43 -37 13 -11 69 -56 125 -100 57 -44
114 -90 128 -101 23 -18 290 -198 335 -226 39 -24 180 -108 200 -119 139 -77
237 -124 246 -118 7 4 9 3 6 -3 -8 -13 20 -26 36 -16 7 3 8 2 4 -2 -9 -10 61
-47 74 -39 5 3 9 1 9 -5 0 -5 10 -13 23 -17 12 -4 45 -17 72 -31 28 -13 60
-24 72 -25 12 -1 19 -6 17 -10 -3 -4 0 -8 6 -8 7 0 45 -14 87 -30 41 -17 79
-28 84 -24 5 3 9 1 9 -4 0 -11 101 -43 113 -35 6 3 7 2 4 -4 -7 -10 139 -57
153 -48 4 3 10 0 12 -6 2 -6 16 -12 31 -12 15 -1 27 -5 27 -8 0 -7 50 -19 92
-22 14 -1 25 -5 23 -8 -6 -9 114 -31 127 -23 6 4 8 3 5 -4 -8 -12 67 -27 84
-16 8 5 9 3 4 -6 -6 -10 -1 -12 19 -8 14 3 26 1 26 -5 0 -5 11 -7 25 -5 14 3
25 2 25 -2 0 -4 11 -10 25 -12 14 -3 25 -1 25 6 0 6 4 5 9 -3 6 -8 20 -12 39
-9 17 2 29 1 26 -4 -3 -4 11 -9 30 -9 20 -1 39 -2 44 -3 4 -1 27 -6 52 -10 25
-4 53 -10 64 -13 10 -3 16 -1 13 4 -4 5 0 10 8 10 8 0 12 -4 9 -9 -3 -4 10 -8
30 -8 19 0 42 -3 52 -7 13 -5 15 -3 9 8 -7 11 -6 12 6 3 20 -16 79 -23 79 -10
0 6 4 5 9 -3 6 -9 11 -10 15 -2 4 6 13 11 19 11 8 0 8 -3 -1 -9 -8 -5 146 -8
352 -8 259 0 363 3 359 11 -3 6 0 5 8 -1 14 -14 33 -18 26 -6 -3 5 33 9 78 9
46 1 92 5 102 9 27 12 44 14 38 6 -7 -13 49 1 57 13 5 7 8 6 8 -3 0 -10 3 -11
13 -2 8 6 16 8 20 5 8 -8 118 7 112 15 -2 4 9 5 26 3 16 -2 29 0 29 5 0 5 14
7 31 5 19 -3 29 -1 26 5 -4 5 6 10 21 10 56 -1 83 3 78 12 -3 4 6 6 21 3 19
-4 24 -2 18 8 -6 9 -4 11 4 6 19 -12 108 3 90 15 -10 7 -5 8 14 3 15 -3 27 -2
27 2 0 5 17 10 37 11 21 1 39 6 41 11 2 6 12 7 24 4 13 -3 19 -1 15 5 -4 6 4
8 20 5 17 -3 24 -1 19 6 -4 6 2 8 16 4 13 -3 19 -1 15 5 -5 7 0 9 13 6 11 -3
20 -1 20 5 0 6 10 8 22 4 16 -4 19 -2 13 8 -5 9 -4 11 4 6 16 -10 101 15 94
28 -3 5 -2 6 4 3 14 -9 85 12 78 23 -3 4 5 6 17 2 13 -3 19 -1 15 5 -5 7 1 9
15 5 13 -3 19 -1 15 5 -5 7 1 9 15 5 13 -3 19 -1 15 5 -4 6 -1 11 6 10 34 -1
48 4 41 15 -4 6 -3 8 3 5 16 -10 84 13 77 25 -4 7 -2 8 5 4 15 -9 53 3 46 15
-3 5 2 6 11 2 11 -4 15 -3 11 4 -5 7 1 9 15 5 16 -4 19 -2 13 8 -5 8 -4 11 3
7 15 -10 43 3 35 16 -3 5 -1 7 4 4 13 -8 75 12 68 22 -2 4 6 7 18 7 13 -1 21
4 19 12 -1 8 2 10 8 7 16 -10 282 124 274 137 -4 7 -2 8 4 4 15 -9 75 22 67
34 -4 6 1 7 11 3 13 -5 15 -3 9 7 -5 9 -4 11 3 6 14 -8 55 18 45 28 -4 4 -1 5
7 2 18 -7 103 47 93 59 -5 4 -2 5 4 1 17 -9 55 12 47 26 -4 7 -3 8 4 4 13 -8
102 49 102 65 0 6 5 7 10 4 6 -3 10 -1 10 6 0 7 3 9 6 6 11 -10 45 13 38 25
-4 6 -3 8 3 5 9 -6 83 38 83 49 0 3 -5 2 -12 -2 -7 -4 -8 -3 -4 5 4 6 11 9 15
6 5 -2 17 3 27 11 10 9 13 12 5 8 -9 -4 -12 -3 -7 4 4 6 13 9 20 6 7 -3 19 3
27 12 12 15 12 17 0 9 -10 -6 -12 -4 -7 4 5 7 10 10 13 7 9 -9 44 14 38 24 -3
6 0 7 8 5 7 -3 22 5 33 17 19 23 19 23 -1 8 -17 -12 -18 -12 -7 0 7 8 20 15
30 15 10 0 16 6 14 15 -2 8 0 12 3 8 11 -10 47 11 40 23 -4 5 -1 8 6 7 7 -2
13 4 14 12 1 8 7 14 14 12 18 -4 62 38 54 52 -3 6 -3 8 2 4 10 -10 67 31 59
43 -3 5 0 8 7 7 7 -2 13 3 14 11 0 8 7 15 16 16 22 4 70 46 63 57 -3 5 0 7 8
6 7 -2 12 3 10 10 -1 6 3 11 10 10 7 -2 12 3 13 10 0 6 3 11 6 10 11 -5 39 24
33 33 -3 5 0 8 8 7 7 -2 12 3 10 10 -1 6 4 11 10 10 7 -2 12 3 10 10 -1 6 3
11 10 10 7 -2 12 2 13 9 0 6 4 15 9 20 5 5 6 3 2 -4 -4 -7 -2 -13 3 -13 6 0
12 5 12 10 1 6 2 14 3 19 0 5 5 13 10 18 5 5 6 2 2 -7 -5 -8 22 15 58 53 37
37 64 72 61 77 -4 6 -1 9 7 8 7 -2 12 3 10 10 -1 6 4 11 10 10 7 -2 12 3 10
10 -1 8 2 11 7 8 11 -7 43 33 35 45 -2 4 1 11 7 15 8 5 10 2 5 -7 -4 -8 6 1
23 20 17 19 28 38 25 42 -2 4 1 11 7 15 8 5 9 3 4 -7 -5 -8 1 -5 13 5 26 23
30 45 5 25 -16 -13 -17 -12 -5 3 8 10 19 16 25 15 7 -1 11 4 9 11 -1 6 4 12
10 12 17 1 51 47 43 59 -3 5 0 13 6 17 8 5 9 3 4 -7 -8 -12 -6 -12 9 0 9 8 15
20 12 27 -3 7 0 16 6 20 7 5 8 2 4 -7 -4 -8 2 -3 13 10 12 12 18 28 14 34 -3
6 -1 7 5 3 13 -8 35 28 24 39 -4 3 -1 5 7 3 7 -1 16 3 19 11 3 9 0 11 -9 6 -8
-5 -11 -4 -6 1 5 5 14 9 19 9 6 0 13 6 16 14 3 9 0 11 -9 6 -8 -5 -11 -4 -6 1
5 5 14 9 20 9 7 0 12 8 12 17 0 9 4 20 9 25 5 4 6 3 2 -4 -4 -7 -5 -13 -3 -13
6 0 76 107 79 121 2 6 14 22 26 36 13 13 21 30 18 38 -3 8 0 17 6 21 7 5 8 2
4 -7 -4 -8 0 -5 8 6 9 11 14 25 12 32 -3 7 0 15 6 19 7 5 8 2 3 -7 -5 -10 -5
-11 3 -4 6 6 12 16 14 24 2 8 11 23 21 33 10 11 16 26 13 34 -3 8 0 13 7 11 7
-1 12 8 11 20 0 12 4 21 10 20 6 -1 10 6 10 15 -1 10 3 15 9 11 6 -4 8 0 5 9
-4 8 -2 21 4 29 8 11 9 10 4 -4 -4 -11 -2 -16 5 -11 6 3 9 15 6 25 -3 11 -1
17 4 14 11 -8 122 214 115 231 -3 8 0 13 7 11 7 -1 12 8 11 20 0 12 3 20 7 18
11 -7 32 52 23 66 -4 7 -3 10 3 6 14 -9 37 48 27 64 -4 8 -3 10 5 5 6 -4 14 0
17 11 3 10 15 40 26 66 11 27 17 55 14 63 -3 8 -2 12 3 9 12 -7 24 31 15 46
-5 8 -3 9 6 4 10 -6 12 -3 8 13 -4 14 -2 20 5 15 6 -4 8 2 5 15 -4 14 -2 20 5
15 6 -4 8 2 5 15 -4 12 -2 20 3 17 11 -8 23 40 13 56 -4 7 -3 10 3 6 13 -8 38
67 28 83 -5 8 -4 11 1 7 13 -7 38 78 28 94 -5 8 -3 9 6 4 10 -6 12 -3 8 13 -4
14 -2 20 4 16 7 -4 8 5 3 27 -4 24 -3 30 4 20 7 -11 11 -6 16 22 4 19 4 41 -1
48 -4 7 -3 10 4 5 13 -8 28 57 16 75 -4 7 -3 10 4 5 12 -7 28 56 18 72 -3 6
-1 12 5 14 6 2 12 27 12 55 1 30 5 46 10 40 5 -7 7 -1 4 15 -2 15 0 29 4 30 5
2 10 31 11 64 2 34 7 60 11 57 5 -3 8 10 7 28 -2 19 2 45 7 59 6 14 8 27 4 30
-11 9 -12 32 0 24 8 -5 10 8 7 44 -3 31 -1 49 5 45 5 -3 8 11 5 35 -2 22 0 38
4 36 13 -8 9 11 -4 25 -11 11 -10 12 1 6 11 -6 12 3 9 48 -2 31 -1 54 2 52 4
-2 7 158 7 355 0 246 -3 358 -10 353 -6 -4 -7 -1 -1 8 11 18 16 52 7 46 -5 -3
-7 20 -5 51 2 42 0 53 -7 42 -6 -8 -11 -10 -11 -4 0 5 5 15 12 22 7 7 8 12 2
12 -6 0 -8 16 -6 36 3 21 1 34 -5 31 -5 -3 -7 9 -5 29 2 18 1 42 -3 51 -4 10
-8 36 -10 58 -5 76 -17 145 -24 141 -4 -3 -5 8 -3 25 3 18 0 29 -7 29 -7 0 -9
5 -6 10 10 16 -6 101 -18 93 -5 -3 -7 -1 -4 4 9 15 -4 104 -13 98 -5 -3 -6 5
-2 17 4 16 2 19 -8 13 -8 -5 -11 -4 -6 3 8 13 -4 93 -13 88 -3 -2 -6 8 -7 22
-1 32 -34 155 -43 162 -3 3 -8 16 -9 30 -2 14 -8 27 -13 28 -5 2 -6 8 -3 14 5
8 -11 63 -36 123 -5 11 -18 50 -30 88 -12 37 -26 67 -31 67 -6 0 -8 4 -5 9 5
8 -51 154 -98 256 -13 28 -34 74 -46 102 -13 30 -27 50 -33 46 -5 -3 -7 -1 -4
4 9 15 -47 126 -58 116 -4 -4 -6 -3 -3 2 3 6 -2 26 -12 45 -11 19 -26 52 -35
72 -10 23 -22 35 -29 31 -6 -3 -8 -3 -4 2 8 8 -24 71 -73 143 -16 24 -29 45
-29 48 0 15 -250 370 -329 466 -189 231 -418 473 -581 614 -25 22 -47 41 -50
44 -31 34 -309 253 -409 321 -35 24 -81 56 -103 72 -21 15 -40 27 -43 27 -2 0
-36 22 -77 48 -155 103 -478 273 -688 362 -243 103 -680 246 -836 273 -16 3
-83 17 -149 30 -66 14 -145 28 -175 32 -30 4 -57 8 -60 10 -3 2 -33 6 -65 10
-33 3 -67 8 -75 10 -8 2 -55 7 -105 11 -49 3 -99 8 -110 11 -24 6 -650 14
-656 9z m4914 -6841 c-3 -9 -8 -14 -10 -11 -3 3 -2 9 2 15 9 16 15 13 8 -4z
m-983 -1559 c0 -2 -8 -10 -17 -17 -16 -13 -17 -12 -4 4 13 16 21 21 21 13z"/>
</g>
</svg>
