<?xml version="1.0" standalone="no"?>
<!DOCTYPE svg PUBLIC "-//W3C//DTD SVG 20010904//EN"
 "http://www.w3.org/TR/2001/REC-SVG-20010904/DTD/svg10.dtd">
<svg version="1.0" xmlns="http://www.w3.org/2000/svg"
 width="194.000000pt" height="194.000000pt" viewBox="0 0 194.000000 194.000000"
 preserveAspectRatio="xMidYMid meet">
<metadata>
Created by potrace 1.14, written by Peter Selinger 2001-2017
</metadata>
<g transform="translate(0.000000,194.000000) scale(0.100000,-0.100000)"
fill="#000000" stroke="none">
<path d="M781 1905 c-313 -71 -568 -275 -689 -550 -64 -146 -77 -213 -77 -395
0 -182 13 -249 77 -394 109 -250 337 -447 614 -533 83 -25 101 -27 269 -27
167 0 186 2 268 27 280 86 505 281 615 532 67 154 77 204 77 390 0 187 -13
253 -77 399 -110 250 -340 450 -614 532 -76 23 -111 27 -244 30 -110 3 -174
-1 -219 -11z"/>
</g>
</svg>
